{"title":"Luke Nguyen's Vietnam Season 2 S02 DVDRip DVD9 Extra","uid":9521172,"size":17847859066,"categoryP":"video","categoryS":"tv_shows","magnet":"?xt=urn:btih:06bd82819e1f61cfea1b42c0d859bae746418c68&amp;dn=Luke+Nguyen%27s+Vietnam+Season+2+S02+DVDRip+DVD9+Extra&amp;tr=udp%3A%2F%2Ftracker.openbittorrent.com%3A80&amp;tr=udp%3A%2F%2Fopen.demonii.com%3A1337&amp;tr=udp%3A%2F%2Ftracker.coppersurfer.tk%3A6969&amp;tr=udp%3A%2F%2Fexodus.desync.com%3A6969","seeders":1,"leechers":5,"uploader":"wildpig1234","files":-1,"time":1390637152,"description":"Luke Nguyen, acclaimed owner and chef of the Sydney restaurant 'The Red Lantern', returns to the country of his heritage to take a culinary journey through the northern regions of Vietnam. Starting in Hue, Luke travels through Vietnam's spectacular northern countryside, visiting the natural wonders of Ha Long Bay, stopping at the French inspired Hanoi and all the way to the beautiful mountains of Sapa. Along the way he prepares dishes in locations that represent an authentic Vietnam, in all its chaotic vibrancy.\n\nThis has both the DVDRip mp4 and extra as well as the original two DVD9.  You can get only the rip files or get also the DVD9 iso to burn or both.\n\n\nPlease keep seeding this nice travel/cooking show.  Thanks\n\n\nFormat                         : MPEG-4\nFormat profile                 : Base Media / Version 2\nCodec ID                       : mp42\nFile size                      : 238 MiB\nDuration                       : 25mn 1s\nOverall bit rate mode          : Variable\nOverall bit rate               : 1 331 Kbps\nEncoded date                   : UTC 2011-02-28 06:22:11\nTagged date                    : UTC 2011-02-28 06:31:19\nWriting application            : HandBrake svn3735 2011011501\n\nVideo\nID                             : 1\nFormat                         : AVC\nFormat/Info                    : Advanced Video Codec\nFormat profile                 : &lt;a class=&quot;__cf_email__&quot; href=&quot;/cdn-cgi/l/email-protection&quot; data-cfemail=&quot;d694b7a5b3babfb8b3969ae4f8e7&quot;&gt;[email&amp;#160;protected]&lt;/a&gt;&lt;script cf-hash='f9e31' type=&quot;text/javascript&quot;&gt;\n/* &lt;![CDATA[ */!function(){try{var t=&quot;currentScript&quot;in document?document.currentScript:function(){for(var t=document.getElementsByTagName(&quot;script&quot;),e=t.length;e--;)if(t[e].getAttribute(&quot;cf-hash&quot;))return t[e]}();if(t&amp;&amp;t.previousSibling){var e,r,n,i,c=t.previousSibling,a=c.getAttribute(&quot;data-cfemail&quot;);if(a){for(e=&quot;&quot;,r=parseInt(a.substr(0,2),16),n=2;a.length-n;n+=2)i=parseInt(a.substr(n,2),16)^r,e+=String.fromCharCode(i);e=document.createTextNode(e),c.parentNode.replaceChild(e,c)}}}catch(u){}}();/* ]]&gt; */&lt;/script&gt;\nFormat settings, CABAC         : No\nFormat settings, ReFrames      : 2 frames\nCodec ID                       : avc1\nCodec ID/Info                  : Advanced Video Coding\nDuration                       : 25mn 1s\nBit rate mode                  : Variable\nBit rate                       : 1 200 Kbps\nWidth                          : 480 pixels\nHeight                         : 268 pixels\nDisplay aspect ratio           : 16:9\nFrame rate mode                : Constant\nFrame rate                     : 25.000 fps\nColor space                    : YUV\nChroma subsampling             : 4:2:0\nBit depth                      : 8 bits\nScan type                      : Progressive\nBits/(Pixel*Frame)             : 0.373\nStream size                    : 215 MiB (90%)\nWriting library                : x264 core 112\nEncoding settings              : cabac=0 / ref=2 / deblock=1:0:0 / analyse=0x1:0x111 / me=umh / subme=6 / psy=1 / psy_rd=1.00:0.00 / mixed_ref=1 / me_range=16 / chroma_me=1 / trellis=0 / 8x8dct=0 / cqm=0 / deadzone=21,11 / fast_pskip=1 / chroma_qp_offset=-2 / threads=3 / sliced_threads=0 / nr=0 / decimate=1 / interlaced=0 / constrained_intra=0 / bframes=0 / weightp=0 / keyint=250 / keyint_min=25 / scenecut=40 / intra_refresh=0 / rc_lookahead=40 / rc=crf / mbtree=1 / crf=20.0 / qcomp=0.60 / qpmin=3 / qpmax=51 / qpstep=4 / ip_ratio=1.40 / aq=1:1.00\nEncoded date                   : UTC 2011-02-28 06:22:11\nTagged date                    : UTC 2011-02-28 06:31:19\nColor primaries                : BT.601 NTSC\nTransfer characteristics       : BT.709\nMatrix coefficients            : BT.601\n\nAudio\nID                             : 2\nFormat                         : AAC\nFormat/Info                    : Advanced Audio Codec\nFormat profile                 : LC\nCodec ID                       : 40\nDuration                       : 25mn 1s\nBit rate mode                  : Variable\nBit rate                       : 128 Kbps\nMaximum bit rate               : 211 Kbps\nChannel(s)                     : 2 channels\nChannel positions              : Front: L R\nSampling rate                  : 48.0 KHz\nCompression mode               : Lossy\nStream size                    : 22.9 MiB (10%)\nLanguage                       : English\nEncoded date                   : UTC 2011-02-28 06:22:11\nTagged date                    : UTC 2011-02-28 06:31:19\n\nText\nID                             : 3\nFormat                         : Apple text\nCodec ID                       : text\nDuration                       : 25mn 1s\nBit rate mode                  : Constant\nBit rate                       : 1 bps\nStream size                    : 115 Bytes (0%)\nEncoded date                   : UTC 2011-02-28 06:22:11\nTagged date                    : UTC 2011-02-28 06:31:19\n","torrent":{"xt":"urn:btih:06bd82819e1f61cfea1b42c0d859bae746418c68","amp;dn":"Luke+Nguyen%27s+Vietnam+Season+2+S02+DVDRip+DVD9+Extra","amp;tr":["udp%3A%2F%2Ftracker.openbittorrent.com%3A80","udp%3A%2F%2Fopen.demonii.com%3A1337","udp%3A%2F%2Ftracker.coppersurfer.tk%3A6969","udp%3A%2F%2Fexodus.desync.com%3A6969"],"infoHash":"06bd82819e1f61cfea1b42c0d859bae746418c68","infoHashBuffer":{"type":"Buffer","data":[6,189,130,129,158,31,97,207,234,27,66,192,216,89,186,231,70,65,140,104]},"announce":[],"urlList":[]}}